<?xml version="1.0" encoding="iso-8859-1"?>
<!-- Generator: Adobe Illustrator 19.0.0, SVG Export Plug-In . SVG Version: 6.00 Build 0)  -->
<svg version="1.1" id="Capa_1" xmlns="http://www.w3.org/2000/svg" xmlns:xlink="http://www.w3.org/1999/xlink" x="0px" y="0px"
	 viewBox="0 0 512.001 512.001" style="enable-background:new 0 0 512.001 512.001;" xml:space="preserve">
<linearGradient id="SVGID_1_" gradientUnits="userSpaceOnUse" x1="11.0005" y1="257.9995" x2="501.0005" y2="257.9995" gradientTransform="matrix(1 0 0 -1 0 514)">
	<stop  offset="0" style="stop-color:#00F2FE"/>
	<stop  offset="0.021" style="stop-color:#03EFFE"/>
	<stop  offset="0.293" style="stop-color:#24D2FE"/>
	<stop  offset="0.554" style="stop-color:#3CBDFE"/>
	<stop  offset="0.796" style="stop-color:#4AB0FE"/>
	<stop  offset="1" style="stop-color:#4FACFE"/>
</linearGradient>
<path style="fill:url(#SVGID_1_);" d="M481,371c11.046,0,20-8.954,20-20v-92c0-33.084-26.916-60-60-60h-39v-79
	c0-44.112-35.888-80-80-80h-47.533c-7.739-23.749-29.864-40-55.16-40h-25.614c-25.296,0-47.421,16.251-55.16,40H91
	c-44.112,0-80,35.888-80,80v312c0,44.112,35.888,80,80,80h88c11.046,0,20-8.954,20-20s-8.954-20-20-20H91c-22.056,0-40-17.944-40-40
	V120c0-22.056,17.944-40,40-40h2v59c0,11.046,8.954,20,20,20h189c11.046,0,20-8.954,20-20V80c22.056,0,40,17.944,40,40v79h-65.007
	C263.913,199,237,225.913,237,258.993v193.015c0,33.08,26.916,59.993,60.01,59.993L441,511.926c33.084,0,60-26.913,60-59.992
	c0-11.046-8.954-20-20-20s-20,8.954-20,20c0,11.024-8.972,19.992-20.01,19.992L297,472c-11.028,0-20-8.969-20-19.993V258.993
	c0-11.024,8.969-19.993,19.993-19.993H441c11.028,0,20,8.972,20,20v92C461,362.046,469.954,371,481,371z M282,119H133V80h21
	c9.177,0,17.177-6.246,19.403-15.149l2.798-11.194C178.211,45.616,185.404,40,193.693,40h25.614c8.289,0,15.481,5.616,17.492,13.657
	l2.798,11.194C241.823,73.754,249.823,80,259,80h23V119z M421,369c0,11.046-8.954,20-20,20h-64c-11.046,0-20-8.954-20-20
	s8.954-20,20-20h64C412.046,349,421,357.954,421,369z M421,299c0,11.046-8.954,20-20,20h-64c-11.046,0-20-8.954-20-20
	s8.954-20,20-20h64C412.046,279,421,287.954,421,299z"/>
<g>
</g>
<g>
</g>
<g>
</g>
<g>
</g>
<g>
</g>
<g>
</g>
<g>
</g>
<g>
</g>
<g>
</g>
<g>
</g>
<g>
</g>
<g>
</g>
<g>
</g>
<g>
</g>
<g>
</g>
</svg>
