<?xml version="1.0" encoding="iso-8859-1"?>
<!-- Generator: Adobe Illustrator 19.0.0, SVG Export Plug-In . SVG Version: 6.00 Build 0)  -->
<svg version="1.1" id="Capa_1" xmlns="http://www.w3.org/2000/svg" xmlns:xlink="http://www.w3.org/1999/xlink" x="0px" y="0px"
	 viewBox="0 0 512 512" style="enable-background:new 0 0 512 512;" xml:space="preserve">
<linearGradient id="SVGID_1_" gradientUnits="userSpaceOnUse" x1="53.0555" y1="258" x2="458.9445" y2="258" gradientTransform="matrix(1 0 0 -1 0 514)">
	<stop  offset="0" style="stop-color:#00F2FE"/>
	<stop  offset="0.021" style="stop-color:#03EFFE"/>
	<stop  offset="0.293" style="stop-color:#24D2FE"/>
	<stop  offset="0.554" style="stop-color:#3CBDFE"/>
	<stop  offset="0.796" style="stop-color:#4AB0FE"/>
	<stop  offset="1" style="stop-color:#4FACFE"/>
</linearGradient>
<path style="fill:url(#SVGID_1_);" d="M378.943,512H133.055c-44.112,0-80-35.888-80-80V80c0-44.112,35.888-80,80-80h245.889
	c44.112,0,80,35.888,80,80v252c0,11.046-8.954,20-20,20c-11.046,0-20-8.954-20-20V80c0-22.056-17.944-40-40-40H133.055
	c-22.056,0-40,17.944-40,40v352c0,22.056,17.944,40,40,40h245.889c22.056,0,40-17.944,40-40c0-11.046,8.954-20,20-20
	c11.046,0,20,8.954,20,20C458.943,476.112,423.057,512,378.943,512z M378.943,140c0-11.046-8.954-20-20-20h-206
	c-11.046,0-20,8.954-20,20s8.954,20,20,20h206C369.99,160,378.943,151.046,378.943,140z M378.943,220c0-11.046-8.954-20-20-20h-206
	c-11.046,0-20,8.954-20,20s8.954,20,20,20h206C369.99,240,378.943,231.046,378.943,220z M298.055,300c0-11.046-8.954-20-20-20
	H152.943c-11.046,0-20,8.954-20,20s8.954,20,20,20h125.111C289.102,320,298.055,311.046,298.055,300z"/>
<g>
</g>
<g>
</g>
<g>
</g>
<g>
</g>
<g>
</g>
<g>
</g>
<g>
</g>
<g>
</g>
<g>
</g>
<g>
</g>
<g>
</g>
<g>
</g>
<g>
</g>
<g>
</g>
<g>
</g>
</svg>
