<?xml version="1.0" encoding="iso-8859-1"?>
<!-- Generator: Adobe Illustrator 19.0.0, SVG Export Plug-In . SVG Version: 6.00 Build 0)  -->
<svg version="1.1" id="Capa_1" xmlns="http://www.w3.org/2000/svg" xmlns:xlink="http://www.w3.org/1999/xlink" x="0px" y="0px"
	 viewBox="0 0 512 512" style="enable-background:new 0 0 512 512;" xml:space="preserve">
<linearGradient id="SVGID_1_" gradientUnits="userSpaceOnUse" x1="-0.0141" y1="258.1138" x2="511.8386" y2="258.1138" gradientTransform="matrix(1.0003 0 0 -1.0003 0.0141 514.1877)">
	<stop  offset="0" style="stop-color:#00F2FE"/>
	<stop  offset="0.021" style="stop-color:#03EFFE"/>
	<stop  offset="0.293" style="stop-color:#24D2FE"/>
	<stop  offset="0.554" style="stop-color:#3CBDFE"/>
	<stop  offset="0.796" style="stop-color:#4AB0FE"/>
	<stop  offset="1" style="stop-color:#4FACFE"/>
</linearGradient>
<path style="fill:url(#SVGID_1_);" d="M506.14,122.982L389.517,6.36c-7.803-7.804-20.453-7.815-28.269-0.023L50.863,315.722
	c-2.449,2.441-4.223,5.475-5.149,8.805L0.733,486.13c-1.94,6.97,0.035,14.445,5.164,19.548c3.801,3.781,8.895,5.823,14.11,5.823
	c1.824,0,3.662-0.25,5.465-0.762l161.603-45.904c6.819-1.937,12.103-7.337,13.892-14.196c1.789-6.859-0.186-14.152-5.19-19.173
	l-42.455-42.584l224.47-224.47l29.078,29.078L237.864,361.377c-7.838,7.787-7.88,20.454-0.094,28.292
	c7.785,7.838,20.452,7.88,28.292,0.094l240.031-238.441c3.772-3.748,5.898-8.843,5.907-14.16S509.9,126.742,506.14,122.982z
	 M48.841,462.506l26.492-95.179l68.103,68.31L48.841,462.506z M125.073,360.547l-31.154-31.248l224.743-224.019l30.839,30.839
	L125.073,360.547z M435.257,165.291l-88.257-88.257l28.349-28.258l88.305,88.306L435.257,165.291z"/>
<g>
</g>
<g>
</g>
<g>
</g>
<g>
</g>
<g>
</g>
<g>
</g>
<g>
</g>
<g>
</g>
<g>
</g>
<g>
</g>
<g>
</g>
<g>
</g>
<g>
</g>
<g>
</g>
<g>
</g>
</svg>
