<?xml version="1.0" encoding="iso-8859-1"?>
<!-- Generator: Adobe Illustrator 19.0.0, SVG Export Plug-In . SVG Version: 6.00 Build 0)  -->
<svg version="1.1" id="Capa_1" xmlns="http://www.w3.org/2000/svg" xmlns:xlink="http://www.w3.org/1999/xlink" x="0px" y="0px"
	 viewBox="0 0 512.1 512.1" style="enable-background:new 0 0 512.1 512.1;" xml:space="preserve">
<linearGradient id="SVGID_1_" gradientUnits="userSpaceOnUse" x1="0" y1="258.1" x2="512.1" y2="258.1" gradientTransform="matrix(1 0 0 -1 0 514.15)">
	<stop  offset="0" style="stop-color:#00F2FE"/>
	<stop  offset="0.021" style="stop-color:#03EFFE"/>
	<stop  offset="0.293" style="stop-color:#24D2FE"/>
	<stop  offset="0.554" style="stop-color:#3CBDFE"/>
	<stop  offset="0.796" style="stop-color:#4AB0FE"/>
	<stop  offset="1" style="stop-color:#4FACFE"/>
</linearGradient>
<path style="fill:url(#SVGID_1_);" d="M313,492.075c0,11-9,20-20,20H80c-44.1,0-80-35.9-80-80v-215.5c0-24.6,11.6-48.2,31.1-63.3
	l181-139.9c0.5-0.4,1.1-0.8,1.7-1.2c26.1-16.2,58.4-16.2,84.5,0c0.6,0.4,1.1,0.7,1.7,1.2l181,139.9c14.5,12.3,19.3,21.4,20.3,23.3
	c6.4,12.3,10.8,25.9,10.8,40v44.5c0,11-9,20-20,20s-20-9-20-20v-44.5c0-0.6,0-1.2,0-1.8l-172.4,130.3c-0.5,0.4-1,0.7-1.5,1
	c-13,8.1-27.6,12.1-42.2,12.1s-29.2-4.1-42.2-12.1c-0.5-0.3-1-0.6-1.4-1L93,255.775c-8.8-6.6-10.6-19.2-4-28s19.1-10.6,28-4
	l118.5,88.7c12.7,7.6,28.2,7.6,40.9,0l174.4-131.9l-174.5-134.9c-12.6-7.5-28-7.5-40.7,0l-180,139.3c-9.7,7.5-15.5,19.3-15.5,31.6
	v215.5c0,22.1,17.9,40,40,40h213C304,472.075,313,481.075,313,492.075z M506.1,416.175c-7.8-7.8-20.5-7.8-28.3,0l-31.8,31.7v-112.3
	c0-11-9-20-20-20s-20,9-20,20v112.3l-31.9-31.8c-7.8-7.8-20.5-7.8-28.3,0s-7.8,20.5,0,28.3l59,58.9c5.8,5.8,13.4,8.7,21.1,8.7
	c7.6,0,15.3-2.9,21.1-8.7l59.1-59C513.9,436.575,513.9,423.975,506.1,416.175z"/>
<g>
</g>
<g>
</g>
<g>
</g>
<g>
</g>
<g>
</g>
<g>
</g>
<g>
</g>
<g>
</g>
<g>
</g>
<g>
</g>
<g>
</g>
<g>
</g>
<g>
</g>
<g>
</g>
<g>
</g>
</svg>
