<?xml version="1.0" encoding="utf-8"?>
<!-- Generator: Adobe Illustrator 22.0.1, SVG Export Plug-In . SVG Version: 6.00 Build 0)  -->
<svg version="1.1" id="Capa_1" xmlns="http://www.w3.org/2000/svg" xmlns:xlink="http://www.w3.org/1999/xlink" x="0px" y="0px"
	 viewBox="0 0 612 612" style="enable-background:new 0 0 612 612;" xml:space="preserve">
<g>
	<g id="_x31__32_">
		<g>
			<path d="M306,21.1C148.6,21.1,21.1,148.6,21.1,306S148.6,590.9,306,590.9S590.9,463.4,590.9,306S463.4,21.1,306,21.1z M464,232
				c0,0-174.9,224.1-177.6,226.6c-9.1,8.5-23.4,8.1-31.9-1l-103.3-95.3c-8.5-9.1-8.1-23.4,1-31.9s23.4-8.1,31.9,1L265,406
				l159.9-196.6c6.2-10.8,20.1-14.5,30.9-8.3C466.6,207.4,470.3,221.2,464,232z"/>
		</g>
	</g>
</g>
</svg>
