<?xml version="1.0" encoding="iso-8859-1"?>
<!-- Generator: Adobe Illustrator 19.0.0, SVG Export Plug-In . SVG Version: 6.00 Build 0)  -->
<svg version="1.1" id="Capa_1" xmlns="http://www.w3.org/2000/svg" xmlns:xlink="http://www.w3.org/1999/xlink" x="0px" y="0px"
	 viewBox="0 0 512 512" style="enable-background:new 0 0 512 512;" xml:space="preserve">
<linearGradient id="SVGID_1_" gradientUnits="userSpaceOnUse" x1="0" y1="258" x2="512" y2="258" gradientTransform="matrix(1 0 0 -1 0 514)">
	<stop  offset="0" style="stop-color:#00F2FE"/>
	<stop  offset="0.021" style="stop-color:#03EFFE"/>
	<stop  offset="0.293" style="stop-color:#24D2FE"/>
	<stop  offset="0.554" style="stop-color:#3CBDFE"/>
	<stop  offset="0.796" style="stop-color:#4AB0FE"/>
	<stop  offset="1" style="stop-color:#4FACFE"/>
</linearGradient>
<path style="fill:url(#SVGID_1_);" d="M492,312c11.046,0,20-8.954,20-20v-43c0-44.112-35.888-80-80-80h-31V20
	c0-11.046-8.954-20-20-20H131c-11.046,0-20,8.954-20,20v149H80c-44.112,0-80,35.888-80,80v143c0,44.112,35.888,80,80,80h31v20
	c0,11.046,8.954,20,20,20h250c11.046,0,20-8.954,20-20v-20h31c44.112,0,80-35.888,80-80c0-11.046-8.954-20-20-20s-20,8.954-20,20
	c0,22.056-17.944,40-40,40h-31v-83h11c11.046,0,20-8.954,20-20s-8.954-20-20-20H100c-11.046,0-20,8.954-20,20s8.954,20,20,20h11v83
	H80c-22.056,0-40-17.944-40-40V249c0-22.056,17.944-40,40-40h352c22.056,0,40,17.944,40,40v43C472,303.046,480.954,312,492,312z
	 M361,349v123H151V349H361z M151,40h210v129H151V40z M421,239c11.046,0,20,8.954,20,20c0,11.046-8.954,20-20,20s-20-8.954-20-20
	S409.954,239,421,239z M191,412c0-11.046,8.954-20,20-20h90c11.046,0,20,8.954,20,20s-8.954,20-20,20h-90
	C199.954,432,191,423.046,191,412z"/>
<g>
</g>
<g>
</g>
<g>
</g>
<g>
</g>
<g>
</g>
<g>
</g>
<g>
</g>
<g>
</g>
<g>
</g>
<g>
</g>
<g>
</g>
<g>
</g>
<g>
</g>
<g>
</g>
<g>
</g>
</svg>
